<?xml version="1.0" encoding="utf-8"?>
<!-- Generator: Adobe Illustrator 22.0.1, SVG Export Plug-In . SVG Version: 6.00 Build 0)  -->
<svg version="1.1" id="svg5049" xmlns="http://www.w3.org/2000/svg" xmlns:xlink="http://www.w3.org/1999/xlink" x="0px" y="0px"
	 viewBox="276 5.2 1688 581.1" style="enable-background:new 276 5.2 1688 581.1;" xml:space="preserve">
<style type="text/css">
	.st0{fill:#FFFFFF;}
	.st1{fill:#181716;}
	.st2{fill:#E21623;}
</style>
<g>
	<path class="st0" d="M943.1,236.7C912.6,292,897.9,339.4,898.7,380c0,1.1,0.1,2.2,0.2,3.3c0,1.7-0.1,3.4-0.1,5
		c1.3,64.5,44.6,92.5,87,91.7c33.1-0.7,58.2-20.3,67.6-38.2c0,0,9-13.4,8.9-28.2c-0.6-3.6-6-2.4-6-2.4l-17.3,6
		c-10,3.5-24.3,5.9-36.3-2.4c-10.4-7.2-16.6-21.1-17.8-39.3c2-81.8,113.1-251.4,219.8-334.2l24.5-19c3.5-3.2,2.5-6.3,2.5-6.3
		c-0.3-2.1-2.7-2-2.7-2l-30.9-1.9c-50.8-3-105.7,0.5-162.1,46.3c-55.2,44.8-115.6,107.2-179.9,185.5c37.9-79.7,81-158.8,111.1-188.9
		l20-20.1c0,0,2.3-2,2.2-5.2c0,0,0.3-2.8-2.4-3l-28.4,0.2c-111.7,1-143.4,40.4-213.1,126.8l-23.2,28.7
		C596.9,335.6,488.4,411.1,390.5,413c-29.2,0.6-50.4-6.9-68.5-24.3c-7.8-7.3-13.3-16.9-16.6-28.3c0,0-3-10.2-5.6-19.3
		c-2.6-10.6-8.9,1.7-8.9,1.7l-7.3,16.1c-5.8,13.1-8.1,27.7-7.3,42.1c-0.5,18.7,4.6,37.7,14.9,53.2c12.9,19.5,39.4,42.5,92,41.4
		c143.3-2.8,277-129,385.1-258.9c-20.3,45-43.3,94.5-60.6,127.7c-11.7,20.8-21.3,34.8-26.1,40.2l-16,14.6c-2.6,2.6-1,6.9,1,8.9
		c1.9,2.1,26.4,1.9,26.4,1.9c57.5,0.8,88.9-3.6,128.3-48.2c12.2-13.8,30-35.3,50.7-60.3C893.7,295.4,918.6,265.2,943.1,236.7
		 M810.1,165c0,0,2-4.4,3.2-7.2c-117.5,151.4-270,317.5-430.6,320.6c-48.6,0.9-72.7-19.8-84.4-37.4c-15.1-22.7-17.7-53.6-6.7-78.5
		l3.1-6.8l2,7.1c3.7,13,10.2,23.9,19,32.4c20,19.1,43.1,27.3,74.9,26.7c100.7-2,211.5-78.5,338.7-234l23.3-28.8
		c69.8-86.6,98.7-122.5,206.1-123.4l6.6-0.1l-4.7,4.7c-47.2,47.4-119.1,201.5-151.8,277.4c84.2-110.3,162.5-195.3,232.8-252.4
		c54-43.8,106.9-47.2,155.9-44.3l7.2,0.4l-5.7,4.4c-110.2,85.5-225,263-223.3,345.3c0.5,23.4,8.2,41.4,21.9,50.9
		c11.9,8.3,27.2,9.5,44.4,3.5l6.5-2.3l-3.2,6.1c-8.2,15.7-30.4,32.8-59.8,33.4c-37.9,0.8-76.8-24.6-77.9-82.9
		c-1.3-64.3,38.3-147.4,120.6-253.7C989.6,156.9,918.6,242.7,865,307.5c-20.6,25-38.5,46.6-50.6,60.2c-37.1,42-65.5,46-121.6,45.2
		l-6.8-0.1l5.1-4.6C709.7,391.3,775,244.1,810.1,165z"/>
	<path class="st0" d="M1122.9,278.2c-20.7,23.3-34,49.7-33,65.9c0.3,4.6,1.7,8.1,4.2,10.3c11.8,10.5,45-6.7,72.5-37.5
		c20.7-23.2,33.9-49.6,33-65.8c-0.3-4.6-1.7-8.2-4.2-10.4C1183.6,230.3,1150.4,247.4,1122.9,278.2 M1160,311
		c-29.1,32.6-55.6,40.7-59.9,36.7c-0.7-0.6-1.2-2.2-1.3-4.2c-0.7-11.6,9.7-35.7,30.8-59.4c29-32.6,55.5-40.6,59.9-36.8
		c0.7,0.6,1.1,2.2,1.3,4.2C1191.4,262.9,1182,286.2,1160,311z"/>
	<path class="st0" d="M1832.2,207.4c-0.1-5.1-3.6-8-9.5-7.9c-21.8,0.4-62.1,39.7-83.6,80.7C1790.4,270,1832.7,232.6,1832.2,207.4
		 M1758.4,265.5c21.6-31.9,50.8-56.7,64.5-57l0.3,0C1822.4,224.3,1796.2,251.6,1758.4,265.5z"/>
	<path class="st0" d="M1954,242.4l-12.9-17.2l-7.4,20.2c-17.3,47.5-81.1,103.4-148.5,110.8c-21.8,2.4-36.5-1.3-43.6-10.9
		c-3.5-4.7-5.4-11.2-5.5-19.2c-0.1-6.3,0.9-13.5,2.9-20.7c5.6,2,11.9,3.1,19.1,3c39.7-0.4,77.7-16.3,104.2-43.6
		c17.9-18.4,28.3-40,27.9-57.9c-0.5-26.9-21.6-44.6-52.3-44c-55.4,1.1-120.3,45.9-153.2,87.5c-6.2,7.9-11.7,16.5-16.3,25.4
		c-35.4,38.2-61.4,52.2-74.1,52.4c-5.3,0.1-6.4-2.1-6.5-5.6c-0.5-25.6,41.6-84.8,59.5-110l14.4-20.2l-18.6-2.9
		c-11.6-1.8-24.5-0.9-37.3,2.8c-29.2,8.4-40.8,24-58.4,47.5l-7.3,9.7c-38.4,50.5-83.1,82-98.3,82.3l-0.4,0l0-0.3
		c-0.1-8.1,12.7-29,21.2-42.8c12.1-19.5,21.6-35,21.4-46.8c-0.4-22.3-20.4-33.2-33.6-40.5l-28.4-14.7c0,0-2.3-1.2-5-2.6
		c6.3-13.6,13.1-31.6,14.4-39.9l1.6-9.7l-9.4-3.1c-27.8-9.3-46.3-1.9-57,5.9c-16.3,11.9-21.8,30.2-21.6,42.2
		c0.2,8,3.1,16.1,7.9,22.7c-49.5,88.5-92.2,131.4-105.9,132.5c-2.4,0.2-3.2-0.2-3.2-0.2c0-0.1-0.7-1.7-0.8-5.2
		c-0.5-22.9,29.2-73.1,57.3-108.6l11.6-14.7L1294,202c-24.5-5.3-48-0.5-64.1,12.2c-9.7-8.4-23.1-13.8-39.2-14.9l-0.4,0h-0.4
		c-61.8,1.2-106.1,37.9-127.1,59.8c-28.9,30-47.2,66.2-46.7,92.3c0.7,33.4,22,53.8,55.8,53.2c33.4-0.7,67.9-14.5,100.8-40.2
		c1.7,7.5,4.8,14.4,9.3,19.8c8.3,10.1,20.1,15.3,34.2,15c68.9-1.4,133.7-92,177.3-171.2c1.5,0.8,3.2,1.7,3.2,1.7
		c2.8,1.4,8.3,4.3,9,5.6c0.1,8.3-10,24.8-18.9,39.4c-13.6,22.3-27.6,45.3-27.2,66.6c0.6,32,22.3,51.4,56.5,50.8
		c27.9-0.5,60.1-17,95.8-48.9c2.3,9.8,6.4,18.7,12.5,25.6c10.3,11.7,25.2,17.6,42.8,17.3c28.7-0.6,57.3-12.8,89.1-38.1
		c3.1,12.5,9.2,24.1,18.3,33.5c18.7,19.6,48.3,30,83.3,29.3c69-1.4,144.1-34.2,182.7-79.9c13.8-16.4,23.9-38,23.5-58.4
		C1963.8,261.7,1960.8,251.4,1954,242.4 M1933.7,325c-37.1,43.9-109.5,75.5-176.1,76.8c-32.4,0.6-59.7-8.8-76.6-26.5
		c-11.6-12.1-18-27.7-18.3-44.4c-35,30.7-65.6,45.5-95.7,46.1c-15,0.3-27.4-4.6-36-14.2c-7.6-8.6-11.8-20.7-12.1-34.3
		c0-1.4,0.2-2.9,0.3-4.3c-39.3,38.4-74.1,58.4-103.2,59c-29.2,0.6-46.9-15.2-47.4-42c-0.4-18.7,13-40.6,25.9-61.7
		c10.5-17.2,20.3-33.4,20.1-44.1c-0.1-6.1-5.1-9-13.7-13.5l-5.4-2.9l-5.5-2.9c-42.8,79.3-107.2,172.9-173.9,174.2
		c-11.3,0.2-20.7-3.8-27.1-11.7c-5.5-6.8-8.6-16-8.8-26.1c0-2,0.1-4,0.3-6c-35.2,31.4-72.5,48.5-108.6,49.2
		c-28.6,0.6-46.1-16-46.6-44.4c-0.9-46.6,69.7-141.1,165-142.9c17.7,1.2,31.5,7.7,39.4,18.2c13.4-14.9,37.4-21.1,62.6-15.7l4.2,1
		l-2.7,3.4c-24.1,30.5-59.8,86.1-59.2,114.3c0.1,5.6,1.4,9.5,3.8,11.7c2.1,1.9,5.4,2.7,9.8,2.3c22.8-1.8,71.5-61.6,116-142.4
		c-5.8-5.5-9.6-13.7-9.8-21.8c-0.2-10.6,5.3-25.5,17.9-34.8c8.9-6.6,24.7-12.7,48.8-4.7l2.2,0.7l-0.4,2.3
		c-1.3,8.4-10.3,31.5-17.5,45.3c3.3,1.7,12.8,6.5,12.8,6.5l28.2,14.6c15.6,8.6,28.6,17,28.9,32.8c0.2,9.2-9.2,24.4-20,41.9
		c-10.6,17.3-22.8,36.9-22.6,47.6c0.1,6.5,3,9.2,9.5,9c19.6-0.4,66.6-35,105.3-85.8l7.3-9.8c17.1-22.9,27.4-36.7,53.7-44.3
		c11.5-3.3,23.1-4.1,33.4-2.5l4.3,0.7l-5.9,8.4c-20.1,28.2-61.8,86.8-61.2,115.4c0.2,9.2,6.1,14.6,15.6,14.4
		c19.1-0.4,48.7-20.8,81-56c4.5-8.9,9.9-17.3,16.2-25.3c31.7-40,93.8-83.1,146.3-84.1c25.8-0.5,42.8,13.3,43.2,35.2
		c0.3,15.6-9.2,34.8-25.4,51.5c-24.9,25.6-60.5,40.5-97.9,40.9c-10.3,0.1-18.4-2.3-24.3-6.7c-3.9,10-6.8,22.1-6.6,33.6
		c0.2,9,2.2,17.5,7.2,24.3c9.1,12.3,26.6,17.3,51.9,14.5c70.6-7.7,137.7-66.5,155.9-116.6l1.7-4.7l3,4
		C1963.8,270.3,1952.4,302.8,1933.7,325z"/>
	<path class="st1" d="M1946.8,239.6l-3-4l-1.7,4.7c-18.2,50.1-85.2,108.9-155.9,116.6c-25.3,2.8-42.7-2.1-51.9-14.5
		c-5-6.8-7-15.3-7.2-24.3c-0.2-11.5,2.7-23.5,6.6-33.6c5.9,4.4,13.9,6.8,24.3,6.7c37.4-0.4,73-15.3,97.9-40.9
		c16.2-16.7,25.8-36,25.4-51.5c-0.4-21.9-17.4-35.7-43.2-35.2c-52.6,1-114.7,44.1-146.3,84.1c-6.2,7.9-11.7,16.4-16.2,25.3
		c-32.4,35.2-61.9,55.6-81,56c-9.6,0.2-15.5-5.2-15.6-14.4c-0.6-28.6,41.2-87.2,61.2-115.4l5.9-8.4l-4.3-0.7
		c-10.4-1.6-21.9-0.8-33.4,2.5c-26.3,7.6-36.6,21.4-53.7,44.3l-7.3,9.8c-38.7,50.9-85.6,85.5-105.3,85.8c-6.6,0.1-9.4-2.6-9.5-9
		c-0.2-10.7,11.9-30.3,22.6-47.6c10.8-17.5,20.2-32.7,20-41.9c-0.3-15.8-13.2-24.2-28.9-32.8l-28.2-14.6c0,0-9.5-4.8-12.8-6.5
		c7.2-13.8,16.1-36.9,17.5-45.3l0.4-2.3l-2.2-0.7c-24.2-8.1-39.9-1.9-48.8,4.7c-12.7,9.3-18.1,24.2-17.9,34.8
		c0.2,8.1,4,16.4,9.8,21.8c-44.5,80.8-93.2,140.6-116,142.4c-4.4,0.4-7.7-0.4-9.8-2.3c-2.4-2.2-3.7-6.2-3.8-11.7
		c-0.6-28.2,35.1-83.8,59.2-114.3l2.7-3.4l-4.2-1c-25.2-5.5-49.2,0.7-62.6,15.7c-7.9-10.5-21.7-17-39.4-18.2
		c-95.3,1.9-165.9,96.3-165,142.9c0.5,28.4,18,45,46.6,44.4c36-0.7,73.4-17.8,108.6-49.2c-0.2,2-0.3,4.1-0.3,6
		c0.2,10.1,3.2,19.3,8.8,26.1c6.4,7.9,15.9,12,27.1,11.7c66.7-1.3,131.1-94.9,173.9-174.2l5.5,2.9l5.4,2.9
		c8.7,4.5,13.6,7.3,13.7,13.5c0.2,10.7-9.7,26.9-20.1,44.1c-12.9,21.2-26.3,43-25.9,61.7c0.5,26.9,18.3,42.6,47.4,42
		c29.2-0.6,63.9-20.5,103.2-59c0,1.4-0.3,2.9-0.3,4.3c0.3,13.6,4.5,25.7,12.1,34.3c8.6,9.6,21,14.5,36,14.2
		c30.1-0.6,60.7-15.4,95.7-46.1c0.3,16.7,6.7,32.2,18.3,44.4c16.9,17.7,44.2,27.1,76.6,26.5c66.6-1.3,139-32.9,176.1-76.8
		C1952.4,294.7,1963.8,262.2,1946.8,239.6 M1822.7,191.4c5.8-0.1,9.4,2.8,9.5,7.9c0.5,25.2-41.8,62.6-93.1,72.8
		C1760.7,231.1,1800.9,191.8,1822.7,191.4z M1166.6,308.8c-27.5,30.8-60.7,48-72.5,37.5c-2.5-2.3-3.9-5.7-4.2-10.3
		c-1-16.1,12.3-42.6,33-65.9c27.5-30.8,60.7-47.9,72.5-37.5c2.6,2.3,4,5.8,4.2,10.4C1200.5,259.2,1187.3,285.7,1166.6,308.8z"/>
	<path class="st1" d="M997.6,413.9c-13.7-9.5-21.4-27.5-21.9-50.9c-1.6-82.4,113.2-259.8,223.3-345.3l5.7-4.4l-7.2-0.4
		c-49-2.9-101.9,0.5-155.9,44.3c-70.3,57.1-148.6,142.2-232.8,252.4c32.7-76,104.6-230,151.8-277.4l4.7-4.7l-6.6,0.1
		C851.3,28.5,822.4,64.4,752.6,151l-23.3,28.8c-127.2,155.5-238,232-338.7,234c-31.8,0.6-54.9-7.5-74.9-26.7
		c-8.9-8.5-15.3-19.3-19-32.4l-2-7.1l-3.1,6.8c-11,24.9-8.4,55.8,6.7,78.5c11.7,17.6,35.9,38.4,84.4,37.4
		c160.6-3.1,313.1-169.2,430.6-320.6c-1.2,2.8-3.2,7.2-3.2,7.2C775,236,709.7,383.2,691.2,400.1l-5.1,4.6l6.8,0.1
		c56,0.8,84.4-3.2,121.6-45.2c12-13.6,29.9-35.2,50.6-60.2c53.6-64.8,124.5-150.6,163.2-181.4c-82.3,106.3-121.9,189.5-120.6,253.7
		c1.1,58.3,40,83.7,77.9,82.9c29.4-0.6,51.6-17.7,59.8-33.4l3.2-6.1l-6.5,2.3C1024.9,423.4,1009.6,422.2,997.6,413.9"/>
	<polyline class="st2" points="1635.4,464.6 1635.7,463.5 1635.4,464.6 	"/>
	<path class="st2" d="M1551.2,456.4l1-0.6C1551.5,456,1551.3,456.2,1551.2,456.4"/>
	<polyline class="st2" points="1684.9,472.7 1684.8,472.9 1688.2,473.6 1684.9,472.7 	"/>
	<polyline class="st2" points="1372,477.5 1373,477.2 1372,477.5 	"/>
	<path class="st2" d="M1477.6,461.1c-0.3,0.5-0.8,0.8-1.3,1C1477,462,1477.5,461.9,1477.6,461.1"/>
	<path class="st2" d="M797.4,537.1c0-0.7-1.3-1.1-2.3-1.7C795.8,536,796.6,536.6,797.4,537.1"/>
	<polyline class="st2" points="783.1,539 783.4,538.1 783.1,539 	"/>
	<polyline class="st2" points="783.1,539 782.8,540 783.6,539.6 783.1,539 	"/>
	<polyline class="st2" points="1059.4,560.4 1059.5,560.4 1059.7,560.1 1059.4,560.4 	"/>
	<path class="st2" d="M1050.5,559.6l1.7-0.9C1051.3,558.7,1050.8,559.1,1050.5,559.6"/>
	<polyline class="st2" points="795.1,535.5 794,534.3 795.1,535.5 	"/>
	<polyline class="st2" points="962.2,574.8 963,574.6 962.2,574.8 	"/>
	<path class="st2" d="M1484.5,461l0.8,0.2C1485.4,460.9,1485.3,460.6,1484.5,461"/>
	<polyline class="st2" points="1675,158.4 1675.1,158.8 1675,158.4 	"/>
	<polyline class="st2" points="1717.3,132.9 1717.1,133.5 1717.3,132.9 	"/>
	<polyline class="st2" points="1647.4,167 1647.4,166.9 1645.4,167.3 1647.4,167 	"/>
	<polyline class="st2" points="1720.9,29.8 1721.5,30.4 1720.9,29.8 	"/>
	<polyline class="st2" points="1740.4,93.7 1740.2,92.7 1740.4,93.7 	"/>
	<polyline class="st2" points="1630.8,160.4 1631.6,161 1630.8,160.4 	"/>
	<polyline class="st2" points="1603.4,165.5 1603.4,165.7 1603.4,165.5 	"/>
	<polyline class="st2" points="1614.5,167.9 1615.2,167.5 1614.5,167.9 	"/>
	<polyline class="st2" points="1615.6,167.3 1615.2,167.5 1615.6,167.3 	"/>
	<path class="st2" d="M1604.2,153.7c0.7,0.6,1.6,0.7,2.4,0.9L1604.2,153.7"/>
	<polyline class="st2" points="1625.3,51 1625.2,50.6 1625.3,51 	"/>
	<polyline class="st2" points="1608.8,150 1609.2,150.5 1608.8,150 	"/>
	<path class="st2" d="M1644.6,155.5c0.6-0.8,2.4-0.5,2.2-1.1C1645.9,154.7,1644.7,154.6,1644.6,155.5"/>
	<polyline class="st2" points="1650.3,67.2 1650.5,67.4 1650.3,67.2 	"/>
	<polyline class="st2" points="1608.8,150 1608.4,149.4 1608.4,149.8 1608.8,150 	"/>
	<polyline class="st2" points="1657.3,28.5 1657.3,28.5 1657.6,28.5 1657.3,28.5 	"/>
	<path class="st2" d="M1652.6,24.1l1.3,0.5C1653.3,24.2,1652.9,24.1,1652.6,24.1"/>
	<path class="st2" d="M1606.7,154.7l1.4,0.5C1607.7,154.9,1607.2,154.7,1606.7,154.7"/>
	<polyline class="st2" points="1587.4,31.9 1587.8,31.4 1587.4,31.9 	"/>
	<path class="st2" d="M1739,98l-0.3,0.4C1738.8,98.5,1739,98.5,1739,98"/>
	<polyline class="st2" points="1719.1,62.6 1719.1,62.6 1719.1,62.6 	"/>
	<path class="st2" d="M1720.6,63.9c0-0.6-0.8-1.1-1.4-1.3C1719.4,63.2,1719.7,63.5,1720.6,63.9"/>
	<polyline class="st2" points="1717.8,59.1 1717.8,59.3 1717.8,59.1 	"/>
	<polyline class="st2" points="1721.4,92 1721.4,92 1721.4,92 1721.4,92 	"/>
	<polyline class="st2" points="1722.3,85.6 1722.6,85.1 1722.3,85.6 	"/>
	<polyline class="st2" points="1706.1,45.7 1706.2,45.7 1706.1,45.7 1706.1,45.7 	"/>
	<path class="st2" d="M1657.4,44.4c4-4.1,11.1-10.9,15.4-12c0.5-1.7,2.1-2.3,3.7-2.9l0.5,1.7l1.2-0.8c0.6,0.4-0.9,0.5,0.1,1l0.3-1.2
		c0.2,0.6,3.4,0.1,1.3,1.6c1.6-0.2,3.2-0.2,4.9,0c1.1,0.2,0.8-1.5,2-0.8c0.1,0.5-0.5,0.3-0.5,0.9c1.7,1,2.8,0.3,4.1-0.2
		c1.3-0.6,2.7-1.2,4.3,0l-0.4,0.1c0.8-0.2,1.9,0.4,2,0.2c0.4-1.9-1.1,0.6-1.6-0.9c0.7-1.4,1.7-0.1,2.1-1.2c0.6,1,1.5,0.4,2.3,0.8
		c0.7,1.5,2.7,2.2,2.8,3.8c0.8,0,2.4-0.6,3.6,0.4c-0.1,1.6-1,0.6-0.3,1.9l0.8-0.4c0.8,1,0.5,1.1,0.1,1.3c0.9,1.1,1.7,0.2,2.5,2
		l-1.4-0.2c1.2,0.8,1.4,1.4,2.5,2.9l-1.1-0.9c-0.4,1.6,1.5,1,1.7,1.6c0.2-0.4-0.4-1.5,0.7-1.5c0.4,0.8,2.2,0.9,1.7,2.1l-1.3-0.3
		c1.7,1.2,1.6,0.2,2.5,2.3l-0.5,0.2c1.7,0.5,1.9,2.7,2.8,4.6l-0.4-0.2c0.7,0.6,1.6,0.6,1.7,1c-0.1-1.3,0.3-1.1,1-1.6
		c-0.6,2.1,2.7,1.4,3,4.2c-0.5,0.2-1.3-0.1-1.1-1c-1.7-0.2-2.9,0.3-4.3-0.7c0.7,0.7,1.4,1.6,0.8,1.7l1.4-0.4l0.6,1.4
		c0.9-0.1,0.8-1.7,1.9-0.7c1,1.3-1,1.3-0.3,1.3c1.3,1.8,1.7,0.2,2.1,2.4l-0.5-0.7c0,1.6,1.4,3.4-0.1,4.3c-0.4-0.1-0.9,0-0.9-0.6
		l0.3,0c-1.6-1.1,0.7,1.1-0.9,1.1c0.9-0.4,1.2,1.6,1.2,2.5l1-0.5c3.6,2.3-2,0.3-1.1,3c1,1.7,0.2-0.7,1.1,0.3c0,1.3-0.8,1.8-0.2,3.5
		c-0.4,0.5-0.9,1.6-2,1.7c0.5,1-0.5,3.1,0.6,3.7c1-1.8-1.1-1.8,0.3-3.9l1.2,0.5c-0.1,1.5,0.5,3.5,0,4.5l0.8-0.1
		c0.2,2.2,1.3,3,0.6,5.1c-1.1,0.1-0.7-1.1-0.6-2c-1,1.2-0.3,1.4-1,3.4c-0.9-0.1,0.4-1.4-0.5-1.8c0,0.8-0.1,1.6-0.2,2.3l-0.1,0
		c1.3,0.7-0.6,1.7-0.6,3.2c-1.1,3.2,0.6,4.4,0.9,6.8c-0.6,0.3-1,0.3-1.3-0.1c1-0.5,0.4-0.6,0.2-1c-0.3,1.2-2.4,1.8-2.7,0.9
		c-0.4,1.9,1-0.3,1,1l-1.3,2.3c0.8,0.1,1.4-0.7,1.3,0.8c-0.4,1.2-0.8,1.6-1.6,2.9c-0.2-0.4-1.3-0.2-0.6-1.1
		c-0.6,0.5-1.3,1.4-0.9,2.2c1.5-1-1,2.7,0.7,2.3l-1.6,1l0.3-1c-1.3-0.3-0.6,1.3-0.8,1.9c-0.5,0.4-1.6,1.6-2,1.4
		c-0.1,0.6-1.1,1.5-1.7,1.3c-0.4,0.8,0.5,0.5,0.7,1l-1.9,2c-0.6-0.3-2.1-1.4-2-1.8c-0.3,1.2,1.2,1.5,0,2.6c-0.3-1.5-2.1,0.8-2.3-1.1
		c-1.3,0-3,1.8-3.8,3c0.1,1.3,1.5-0.6,2.1,0.1c-2.6,3-0.9,5.2-3.5,6.8l0.8-0.3c-1,1.7-1,1.4-1.3,2.8c-0.4-1.3-3.8-1.3-6,0.7
		c0.2,0.7,2.1,0,2.3,1.1l-1.5,1.4l0-0.6c-1.2,1.4-3.7,0.6-3.3,2.2l-2.6-0.5l1.1,0.3c0.1,0.7-1.5,2-1.7,2.4c-1.4,1.7-2.4,1.7-3.8,1.6
		c0.6,0.3,2,0.8,0.7,1.8c-1-1.8-3.4,1.1-3.9,0.2c-0.6,0.3-1.9,0.4-1.6,1.1l-0.5-1.2c0.7,1.6-1.5,2.7-3,3.9c-0.7-2.4-1.8,1.1-3.5-0.5
		c0.4,1.6-2.7,2-2.5,3.4c-1.3,0.7-1.8-0.8-2.3-1.1l-0.4,0.8c-1-0.4-3.5,0.5-5.2,0.6l-0.9,1.9l-0.8-0.4c-0.1,0.4-1.2,1.1-0.3,1.3
		l-0.8,0.2c0.5,1.5-1,0.8-2.3,2l-0.2-0.8c-0.8,0.2-0.7-0.6-1.3-1c0.7,0.2-1.9,3.7,0.5,3.6c0.4,0.6-0.8,1.4-1.6,1.4l-0.9-1.2
		l-0.5,1.7c-1.2,0.6-1.9-0.1-3,0c1-0.4,1.4-3.3-1.1-2.5c1.3-0.6,1.7-1.5,2.3-2c-0.6,0.1-0.9,0-0.2-0.8c-1.9,1-0.4,1.1-2.3,1.8
		c-0.2-1.3-0.9-1.5-2.7-1.4l1.5,0.6l-0.2,0.4c0.5,0,0.7,0.1,1,0.6c-0.4,0.1-1.8,2.2-2.4,1.5c2.6,1.3-3.1,2.4-1.5,3.2
		c-0.1,0.4-1.6,0.9-1.9,0.3c1.5-1.3-1.6-1.1-1.5-2c-0.5,0.5,1.5,0.6,0.8,1.3c-1,0.3-1.9-0.3-2.6-0.5l0.3-0.3l-1.7-0.2
		c-0.1,0.7,1.7,0.7,0.4,1.4l-1.9,0c0.5-1-0.2-2.1,0.9-2.5c-1,0.3-4.2,1.1-2.6,2l-1.2,0.2c0.9,0.4,3.2,0.9,0.8,1.6l0-0.3l-1.5,1.3
		l-0.9-0.5c0.1,0.3-0.1,0.7-0.8,0.8l-0.9-0.9c-1.8,0.4-1.6,1-1.8,1.4c-1,0.2-1.4,0-1-0.8c-1.4,0-3.9,0.5-5,0
		c-1.8,0.8,0.4,0.2-0.6,1.2c-1.9-2-6.3-0.2-9.5,0.2c0.9,1.9-0.8,0.3-1.3,2.1c0.6-0.6-3-1.4-0.3-2.1l-1.7,0.2c-1.2-1,2.7-0.9,1-2.3
		c-1.8,0.1-3,2.3-5.2,1.6c0.7-1.4-1.7,0.4-1.2-1.1c0.5-0.5,1.1-0.3,1.7-0.4l-0.4-0.3c-4-0.4-1.2,1.6-3.3,2.5
		c-2.5,0.1-1.9-1.1-2.1-1.8c-0.4-0.3-1.6-0.1-2.3,0.2c1.5-0.7,2.7,1,2,1.8c-1-1.6-3.7-0.3-4.4,0.3c3.5,1.9,2.5,0.2,5.8,2.1
		c0.5-0.5,0.4-1.9,2.4-1.3c-1.3,0.7,0.1,0.8,0.5,1c-0.4-0.8,1.4-0.3,2.1-0.7c0.6,0.7-1.2,1.9,0.8,2.2l0.4-1.9
		c0.8,0.3-0.3,1.4,1.4,0.9c-0.9,1,0.3,1.5-2,1.9c2.9,1.6,4.3-1,6.4-1.8l-0.4,0.5c0.4-0.5,1.3-0.5,1.9-0.7c1.4,0.3-1.1,0.9-0.7,1.4
		l2.4-0.2l0,0.1c0.6-0.3,1.2-0.5,1.4,0c-0.7,0.7-0.9,1.3-1.3,1.9l2.4-1.5c-0.2,0.6,2.1,0.9,0.4,1.5l3.7-0.7l0.4,1.2
		c0.8-0.3,0.8-0.6-0.2-0.6c1.3,0.2,5.2-3,4.9-0.4c2.7-1.5,3.8-1.2,7.1-2.5c-2.4,1.7,3.3,0.9,0.6,2c1.8,0.2,1.8-1.2,3.1-1.7
		c1.3,0.3,1.1,1.7-0.2,2.4l1.4-0.9l0,0.3l1.2-1c1.6,0.3,0.6,1.2,2.1,1l0.1-1.2l1.2,0.4c-0.5-0.4,0.3-0.9,1.3-1.2l0,0.2l1.2-0.5
		c-1.1,1,1.2-0.1,0.9,0.9c1.1-0.2,1.1-0.2,3.1-1l-0.6-0.6c2.4-1.4,0.4,1.1,2.5,0.5l-0.4-0.8c3.4,0.6,4.8-2.4,7.3-2.2
		c-1.2,0.6-0.5,1.5-0.6,1.2c1.8-1,4.9-1.8,6.5-3.6c1.1,0.9,1.5,1.2,3.7,1c1.4-0.7,1.6-0.9,1.7-1.8c1.6-0.1,3.9-2,4.3-1.2
		c0-0.8,1.3-0.4,1.8-1.4l0.3,0.3l-0.5-0.8c3.3,0.7,3.5-3,6.7-2.7l-0.3,0.4l0.8-0.8l0.2,1.2l4.8-2.4l-1.2-0.1c0.9-0.6,1.1-1.8,2.5-2
		c-1.2,2.3,1.5-0.9,2.4-0.2l-0.8,0.9c1.3-0.9,1.3-0.9,0.7-1.6c1.6-1.3,2.1,0.7,3.2-1.1l-1.1,0.7c-0.6-0.2-0.2-1.4,0.5-1.8l0.5,0.4
		c1.1-1.2,3.4-2.1,3.7-2.9c0.9-0.3,1,0.4,0.7,0.9c2.4-2.7,1.4-0.7,3.7-3.5l0.3,0.4l0.6-1.2l2-0.2l-0.9-0.1c0.8-0.8,1.1-1.5,2.4-2.1
		l0.1,0.9c2.1-2.4,3.7-1.5,5.2-4.4l0,0.7c1.3-2.8,2.5-0.5,3.6-3.6l0.5,0.6l0.6-1.3l0.7,0.8l-0.3-1.8l1.3,0.1l0-0.8
		c2.4,0.3,2.7-2.2,5-2.8l-1.2-0.5c0.5-2.8,2.5-4.7,4.6-6.9c2.1-2.1,4.4-4.6,5.3-7.6l0.9,0.6l0-2.9c1.3-0.9,0.5,1.1,1.1,1
		c0.6-2.8-0.9-1.7,0.1-4.7c1.3-1.3,0.5,0.8,0.5,1.7c0.8-3,1.7-7.3,2.7-9.3l-0.3-0.2c0.1-2.1,1.1-4.6,1.4-6.8
		c0.5,0.1,0.4,0.7,0.4,1.3c0.2-0.8,0.7-1.8,0.3-2.6l0.8,1c0.5-1.7-0.1-5.2,1-5.5c-0.4,0.2-1.2,0.1-1-1.4c1.6-0.8-0.6-4.1,0-6.6
		l0.6,1.6c0.3-1.3-0.5-2.3-1.1-3.3l0.7,0.3c-0.4-1.8-1-3.7-1.6-5.4c1.4-1.1-1.4-5.1-0.2-5c-0.5-1.9-0.2,1.8-1.1-0.6
		c0.5-0.8-1-2.1,0.1-2.3l0.2,0.2l-0.6-1.7l1.3,0.8c-0.7-1.4-2-2.1-2.8-1.9c0.1-1.5-1.1-3.2-0.6-4.1l0.4,0.4
		c-1.9-3.5-0.4-7.3-3.5-9.2l0.5,0l-1.2-2.1l1,0.1c-1-1-2.1-1.9-3.1-2.8l0.4-0.3c-1.3-2.3-4-5.6-6.2-8l0.5,0.2
		c-3-2.4-1.7-2.8-4.3-4.8l0.4,0.1c-0.6-0.7-1.3-1.3-2-2l0.8,0.1c-2.2-0.7-3.6-5-3.2-3.5c-1.2-0.4-3.2-1.1-3.9-0.8
		c-2.5-1.6-0.2-1-1.6-2.3c-1.8-1.2-2.6-0.6-5-2.4l0.3-0.4c-1.3-0.6-2.2-0.6-4-1.2h0.6c-3.3-0.2-3.2-2.9-6.3-1.4
		c-1.1-0.8-3.7-1-3.3-2c-4-0.1-7.1-0.1-11,0.3c-0.7-1.6-0.8,0.1-3.2-0.7l0.3,0.9c-5.4,0.4-12.2-0.3-17.8,2.6l-0.5-0.8l-0.7,1.4
		c-1.5,0.6-3.2,1.3-4.8,2.1l-2.4,1.3l-2,1.2c-2.7,1.6-5.1,3.3-7,4.7c-0.9,1.3-2.1,3.6-4.1,5l0.1-0.3l-9.3,10.6
		c-0.2-0.5-0.7-0.3-0.5-0.8c0.1,1.5-1.7,2.5-2.4,3.5l1.3-0.8c-0.2,1.7-1.9,3-2.9,3.6c-0.2,1.1-0.4,2.1-0.5,3.2l-0.6,0.4l0.3,0.7
		c-0.6,0.4-1.1,0.8-1.7,1.2c-0.1,0.8-0.6,5,0.5,6.3c-0.4,0.3-0.8,3.1-1,0.9c-0.3,3.7,0.3,7.7,1.1,10.7V61c0.8-0.4,2.1,2.2,2.2,3.6
		c-1.3-1.5-1.3,0.3-1.6,1.3c0.9,1,0.3-1.4,1.1-0.9c1.1,1.3,2.8,4.1,2.9,5l-0.8-0.7c1.3,1.7,0.4,3.3,1.8,5.1c1.7,1.2,2.2,2.7,3.1,1.4
		c2.1,1.9-0.1,1.5,0.5,2.3c1.4,0.5,4.3,3.7,4.5,4.7c1.4-0.4,3.1,1.1,5.3,2.3c2.1,1.2,4.7,2.1,5.3,1.2c1.2,0.5,2.3,1,3.7,1.4
		c0.1-0.2,0.3-0.7,0.9-1c0.5-0.4,2.3-0.9,3.4-1.3l0.8,0.3l0.2,0.2l0,0.1v0l0.7-0.2l0,0l0,0l0.1,0.1l0.8,0.8l0.5-2.2
		c5.6-0.9,12.2-5.1,15.8-11.2c3.8-6,4.7-13.9,4.3-20.4c-1.3-5.3-4.4-10.5-6.8-15.1l0.5,0.4c-0.7-1.6-1.5-3.1-2.4-4.7
		c0.5,1.2,1,2.4,1.4,3.6c-0.8-0.9-1.6-1.4-2.2-2.3c-2.5-5-7-11.2-13.2-14.5c-4.8-0.7-1.3-3.3-5.8-4.2l1.1-0.2
		c-4.4-1.7-6.9-2.4-11.6-2.7c1.2-1.9-2.9-0.9-2.2-1.8l-0.6,0.7c-0.8-0.8-3.2-1.5-2.7-2.1l-2.2,0.7l0-0.9c-2.8-0.7-8.7-0.2-10.3-1.9
		c-3.5,0.8-8,1.6-12.5,2.8c-4.5,1.3-9.1,3-12.8,4.9c-0.7,1.2-2.7,2.5-4.2,3.7c-0.8,0.1-1.5,0.2-2.3,0.3c-1.4,1.4-2.1,3.8-3.9,4.5
		l0-0.4c-1.3,1.5-3.1,2.4-3.6,4.5c-1.5,1.5-3.2,2.8-3.6,1.7c1.2,1.3-3,3.5-3,3.6c0.1,0-4.6,5.6-8.4,15.7c-3.8,10-5.8,24.5-3.4,38.9
		c2.2,14.4,8.4,28.5,16.2,38.8c7.7,10.4,16.7,16.9,22.7,18.8c1.2-0.2,3.2,0.8,3.2-0.6c1.5,0.8,1.1,2.5,1.9,2c-1.4-1.8,1.9-1.4,1-3.5
		l1.2,0.7c0.6-0.3-1.9-0.6-0.9-1.3l-1.4,1c-0.7-0.9-0.9-1.6-0.9-2.2c-1.2-0.2-3.2,1.1-4.4-1.4l0.6,0.4c-1.5-1.4-0.2-1.6-0.3-2.1
		l0.3,0.3l-0.6-1.8c0.6,1.3,3,1.8,2.1,1.1c-1.4-2,0.2,0.7-1.2-0.4c-0.9-0.7,0-1.1,0.4-1.4l-1.4-1.3c0.6-0.5,0.9,0.9,0.9-0.2
		l-2.3-1.2c1.1-1.7-2.5-1.3-1.9-3.4c1.5,1,0.4-0.6,1-0.7c-1-1-1.9-2.1-2.8-3.2l0.6,0.1c0-1-1.1-0.8-1.4-1.1c0.2-0.6-1.9-2.5-0.8-3.2
		c-0.9-2.8-2.1-0.1-3-2.7c0.5-0.7,1.3,1.7,1.4,0.2l-1.7-2.2c0.5,0,1.4-0.2,1.7,0.7c-3-6.9-1-12-4.3-17.5c0.6-1.2,0.8,0.4,1.6,0.7
		c-2.8-3.8-0.2-6.7-1.3-10.2l-0.7,0.1c1-5.6-1.3-11.5-0.3-17.3l-0.5,0.7c-0.8-0.8-0.8-2.1-1.1-3c0.4-0.1,1.6,0.8,1.3-0.9l-0.9,0.8
		c1.1-2.4,1.8-6.1,3-9.9c1.2-3.8,2.8-7.8,5-10.6c2.1-4.3,5.6-8,9.7-10.6c4.2-2.8,8.6-4.4,12.6-5.4c-1.3,0.3-1.1-1.6,0-1.4
		c1.7,1.4,2.7,1.1,3.8,0.8c1.1-0.3,2.4-0.7,3.6,0.6c2.5-0.3,4.8,0.8,6.9,1.9c2.1,1.1,4.1,2.2,6.9,2.5l-0.4,0.8
		c0.4,0.8,0.9,0.3,1.6,0.7l-0.2,0.2c1.3,1.3,3.6,2.1,4,3.2l0.8-0.7c0.9,0.7-0.1,0.9,1.1,1.4l-0.4,0.3l1.6,0.3
		c-1.4,1,1.9,2.5,1.7,3.7c1,0.9,3,2.8,3.3,4.7c-0.7,0.6-0.1,2.7-0.5,3.6c0.4,0.8,0.3,2.5-0.9,3.1l0.8,0.9l-0.3,0.3l-0.3-0.4
		c-1-0.9-0.5,0.8-1.2,0.2c0.6,0.9,0.3,0,0.5,0c0.6,0.3,0.8,1.5,0.1,1.2l-0.1-0.2l-0.3,0.7l-0.7-0.9l-0.1-0.1l0,0v0l1.8,4l0,0
		l-0.2,0.1l-0.2,0.1c-0.1,0.6-0.2-1.7,1.1-4.3c-0.1,0.3-1,0.2-1.7-0.9c0.9-0.4-1.4-1.2,0.3-1.9c-1.4-0.9-1,1.1-2.4,1.2l-0.5-1.1
		l1.1-0.6l-0.7-1l0.6,0c-2-1.6-0.4-4.4-1.4-4.6c-0.7-0.1-0.1,0.4-0.8,0.3c-1.4-1.1,1.1-0.8,0.4-1.7l0.8,0.4c-0.6-0.4-1.2-0.8-0.3-1
		c1,0.4,0.6,0.7,1,1l0-0.5c-0.1-0.2-0.1-0.9-0.6-0.8c0.2-1,1.2-0.8,1.8-1.1c-0.2-0.2-1.1,0.4-1.2-0.3c1.2-0.8,2.6-2.6,4-4l0.5,0.6
		C1654.6,44.3,1656,46,1657.4,44.4"/>
	<polyline class="st2" points="1721,92.8 1721.4,92 1720.7,91.4 1721,92.8 	"/>
	<polyline class="st2" points="1713.7,53.7 1713.2,53.6 1713.7,53.7 	"/>
	<path class="st2" d="M1705.8,46.5c0.7,0.4,0.4-0.3,0.4-0.8L1705.8,46.5"/>
	<polyline class="st2" points="1712.5,115.4 1712.3,114.9 1712.5,115.4 	"/>
	<polyline class="st2" points="1652.3,153.3 1652.6,153.3 1652.3,153.3 	"/>
	<polyline class="st2" points="1656.6,153.5 1657.4,153.1 1656.6,153.5 	"/>
	<polyline class="st2" points="1720.7,101 1720.7,100.2 1720.7,101 	"/>
	<polyline class="st2" points="1658.1,152.6 1659.1,152.3 1659,152.1 1658.1,152.6 	"/>
	<path class="st2" d="M1651.1,153.6l1.2-0.3C1651.7,153.1,1651.3,153.3,1651.1,153.6"/>
	<path class="st2" d="M1694.3,134.5l0.1-0.1C1694.8,133.6,1694.5,134,1694.3,134.5"/>
	<polyline class="st2" points="1661.6,149.4 1661.8,149.3 1662,149 1661.6,149.4 	"/>
	<polyline class="st2" points="1646.7,154.4 1647.1,154.1 1646.6,154.2 1646.7,154.4 	"/>
	<polyline class="st2" points="1680.7,141.4 1680.8,142.3 1680.7,141.4 	"/>
	<path class="st2" d="M1742.4,482.2c-0.5-3.8,1.6-0.2,3.5-3.3c-1.5,1,4.4,3.6-0.7,3.9l3,0.1c0.4,0.6,0.2,0.9-0.2,1.1
		c1.6,0,3.1,0.1,4.6,0.3c1.8,0.2,5.2,0.3,8.6,0.7h0l0.1,0c1.3,0.1,2.5,0.3,3.7,0.5l0.4-0.5l0.3,0.6c1.5,0.3,2.7,0.7,3.6,1.1
		c1.6-0.2,3.2-0.9,3.9-1.3c-5.2-4.2-4.2-0.9-9.1-5.2c-1.1,0.8-1.7,3.4-4.9,1.8c2.6-0.9,0.3-1.5-0.2-2c0.2,1.6-2.6,0.2-3.9,0.7
		c-0.6-1.4,3.1-3.1-0.3-4.4l-1.7,3.5c-1.2-0.8,1.4-2.5-1.9-2.1c2.1-1.6,0.3-3,4.5-2.9c-4-3.8-7.9,0.5-12,1.2l1.1-0.8
		c-1.1,0.8-2.5,0.5-3.7,0.6c-2.3-1.2,2.3-1.3,2-2.4l-4-0.5l0-0.3c-1.2,0.3-2.3,0.5-2.4-0.4c1.5-1,2.3-2.1,3.3-2.9l-4.9,1.9
		c0.8-1.1-3-2.5,0.2-2.9l-6.4-0.4l0.1-2.5c-1.6,0.2-1.8,0.7,0,1.2c-2-0.9-10.6,3-8.3-1.6c-5.5,1.3-7.1,0.3-13.4,0.8
		c5.1-1.7-4.7-3.4,0.4-3.9c-2.7-1.4-3.8,1.2-6.2,1.3c-1.9-1.3-0.5-3.5,2-4.2l-3,0.8l0.1-0.5l-2.6,1.1c-2.2-1.6,0-2.5-2.5-3.1l-1,2.1
		l-1.5-1.4c0.5,1-1.1,1.3-3.1,1.3l0.1-0.5l-2.4,0.2c2.5-1.1-2-0.7-0.7-2.1c-1.9-0.3-2-0.3-5.6-0.2l0.4,1.5c-4.9,0.9,0.2-2.2-3.6-2.7
		l0,1.7c-4.9-3.3-9.4,0.8-13.1-1.3c2.4-0.2,2.1-2.2,2-1.8c-3.6,0.4-9.1-0.5-13,1.3c-1-2.5-1.2-3.3-4.8-4.6c-2.7,0-3.1,0.2-4.2,1.6
		c-2.5-1.1-7.5,0.1-7.5-1.7c-0.8,1.4-2.4-0.4-3.9,0.7l-0.3-0.7l0.1,1.7c-4.3-4-7.9,1.9-12.3-1.6l0.8-0.4l-2,0.6
		c-0.3-0.8,0.6-1.2,0.7-2.2l-9.1-0.5l1.7,1.3c-1.9,0.1-3.3,1.7-5.4,0.7c3.8-2.5-3-0.1-3.6-2.1l2-0.7c-2.7,0.1-2.7,0.1-2.5,1.8
		c-3.5,0.6-2.3-3.3-5.6-1.5l2.3,0.1c0.7,1-1,2.4-2.5,2.3c-0.4-0.3-1.4-1-0.3-1.2c-2.7,0.6-6.9-0.2-8.1,0.4c-1.5-0.5-1-1.7-0.2-2.2
		c-5.9,1.5-2.7-0.3-8.5,1.2l0.1-1l-2,1.2l-2.9-2l1,1.2c-1.9,0.2-3.1,0.9-5.4,0.4l0.9-1.4c-5.4,0.9-6.4-2.2-11.5-0.1l0.8-1
		c-4.7,2.4-3.8-2.4-8.4,0.5l-0.1-1.5l-2.2,1l0-1.9l-1.6,2.9l-1.5-1.9l-0.8,1c-2.6-3.6-5.7-0.6-9.2-3.2l0.8,2.4
		c-7.6,5.5-18.9-1.7-28.4,1.6l-0.1-2l-3.8,2.6c-2.4-1.3,1.1-1.7,0.3-2.7c-4.2,1.5-1.4,3-6.3,4c-2.8-1,0.7-1.5,1.8-2.3
		c-4.5,1.4-11.3,3.1-14.8,2.4l0,0.7c-3,1.2-7.2,0.8-10.7,1.4c-0.1-0.9,0.7-1.2,1.6-1.4c-1.3,0-3.1-0.4-4,0.6l1-1.8
		c-2.7,0-7.5,2.1-8.5,0.3c0.4,0.7,0.6,2.1-1.6,2.4c-1.9-2.7-5.9,2-10,1c0.3-0.8,3-1.3,2.2-1.2c-2-0.5-3.4,1.1-4.7,2.2l0.2-1.3
		l-8.1,2.9c-1.9-2.7-7.8,1.7-7.8-0.5c-3,0.4,2.9,0.9-0.9,1.8c-1.3-1-3.3,1.2-3.6-0.8l0.4-0.3l-2.6,0.6l1.2-2.1
		c-2.2,0.8-3.4,2.9-3.1,4.3c-2.4-0.7-5.3,0.7-6.7-0.8l0.7-0.6c-5.8,1.8-11.5-3.4-15.4,0.7c-0.4-0.2-0.5-0.7,0.2-0.8l-3.8,0.6
		l0.5-1.5l-5.6,3.3l-0.2-1c-4.2,0.4-10.4,2.1-15.5,3.4l0.6-0.6c-5.2,2.6-5.8,0.2-9.6,2l0.3-0.5l-3.7,0.8l0.5-1.1
		c-2.1,2.6-8.8-1-6.5,0.3c-1.3,1.2-3.6,2.9-3.7,4.1c-4,0.9-1.4-1-4.2-1.3c-3,0.5-2.9,2.2-7.1,2.2l-0.2-0.9c-1.8,0.5-2.7,1.4-5.2,2.2
		l0.6-0.7c-3.5,2.9-6.2-1.6-8.1,3.2c-2-0.4-5.1,0.9-5.6-1c-4.8,2.3-8.6,3.8-13.4,5.6c-1.9-2.9-1,0.4-4.8-0.6l0.8,1.6
		c-7.1,1.8-16.9-0.5-24.6,1.9l-0.8-1.6l-0.9,2.1c-8.9,1.1-20.1,2.8-26.8,4.1c-1.9,1.3-4.6,4-8.3,4.1l0.3-0.3
		c-5.9,2.2-12.5,4.3-19.7,4.9c0.2-0.8-0.6-1.1-0.1-1.8c-1,2.2-4,0.9-5.5,1.2l2.2,0.9c-1.4,2-4.7,1.1-6.2,0.1l-2.4,2.4l-0.8-0.6
		l-0.2,1l-2.4-1.8c-0.6,0.6-4.5,2-5,4.4c-0.6-0.7-3.6-0.6-1.6-1.5l-11.4,1.8l2,0.4c0.8,1.6-2.1,3.4-4.1,3c1.8-1.8-0.7-2.3-2.1-3.3
		c-1.2,1.2,1.8,1.1,1.4,2.2c-1.5,1.5-5.3,3-6.6,2.5l0.9-0.9c-2.4,1.2-4.6-1.4-7.1-0.7c-1.8,1.8-3.9,1-2.5,3.7
		c-3.1,1.3-2-1.6-3.1-1.7c-1,1.7-6,1.9-7.1,0.5c-0.3,4.5-9.4,0.5-8.8,4.1l-3.4-1.4c0.2,1,0.5,3.2-1.5,4c-2.4-0.5-2.5-2.3-3.5-3.1
		l-0.2,3.8c-13.2-1.1-27.9,4.7-41.9,4.3c-5.5,1.9-12.2,5-19.1,5.8l0.6-0.6l-7,0.3l5.4,0.7c-1.3,0.7-2.3,1.6-3.7,1.8
		c-7.8,0-18.1,0-26.6,3.3c-4.7,5-4.9-2.9-9.6,1l0.7-1.5c-5.6,2.3-8.7,3.6-14.2,6.9c-0.3-4.1-3.9,0.7-3.9-1.5l-0.1,1.7
		c-1.6-0.8-4.8-0.7-4.6-1.9l-2.2,2.4l-0.6-1.6c-3.6,0.4-10.8,2.7-13.3-0.5c-8.1,3.6-22,4.4-32.8,4.5c-1.3,1.5-4.5,1.9-6.9,2.2
		l-2.8-1.9c-2.4,0.8-4.9,3.5-7.3,2.3l0.2-0.6c-2.5,0.6-5-0.4-7.2,1.5c-2.8,0-5.5-1-4.7-2.9c-0.2,3.4-5.8-0.4-5.8-0.4l-6-0.3
		c-3.9-0.2-9.1-0.5-16.1-1.1c-13.8-1-32.3-2.7-50.6-5.5c-18.3-2.7-36.3-6.7-48.8-10.8c-6.3-2-11.3-3.9-15.2-5.2
		c-2-0.7-3.7-1.1-5.3-1.6c-1.7-0.5-3.3-1.1-5-1.7c-2.3,0-3.6-1.5-6.2-0.5c-0.7-1.3,3.4-2.1,1.4-2.2c-1.2,0.9-2.4,0.9-3.9,0.8
		c-1.4-0.1-3.1-0.2-4.7,1l0-1.4c-1.5-0.2,1,1.7-1.6,1.7l3.9,0c-0.7,1.1-1.4,1.9-2.7,2.5c1.8,0.9,7.1,0.3,5.8,3l-0.5-0.5
		c1,1.7-1.9,1.9-2.3,2.5l-0.2-0.4c-0.4,0.7-0.7,1.5-0.9,2.3c0.4-1.6-3.7-2.9-2.9-1.8c0.3,2.9,0.6-0.9,2,0.8c0.9,1.1-1.3,1.5-2.4,1.9
		c0.5,0.7,1,1.4,1.6,2.1c-1.7,0.7-1-1.4-2.1,0.2c1.3,0.7,2.6,1.2,3.9,1.8c-1.8,1.3-0.6,1.8,0.6,2.2c1.3,0.5,2.6,0.9,1.5,2.6
		c-2.8-1.2-1.1,1-2.6,1.5c1.8,1.4,3.6,2.8,5.6,4.1c0.1,0.8-2.5-0.2-1.4,0.2c0.1,1.5,2.6,0.6,3.1,1c-0.4,1.1,4.4,2.7,2.3,4.6
		c3.1,3.7,4.2-1.5,7.1,1.7c-0.6,1.6-3.5-1.3-2.9,0.8c1.6,0.6,3.2,1.2,4.7,1.7c-0.9,0.4-2.5,1.6-4,0.6c5.2,3.7,8.6,7.8,12.4,11.4
		c3.8,3.5,8.1,6.5,14.8,7.3c1,2.1-1.8,0.8-3.6,1.5c10.1,0.3,11.4,7,19.6,8.5l0.6-1.4c9.7,6.6,24,6,36.2,9.2l-1.3-1.2
		c2-1.2,4.8-1.1,7-1.5c0.2,0.8-2.1,3,1.7,2.7c-0.7-0.6-2.1-1.3-1.5-1.9c5,2.4,13.4,3.8,22.5,4.8c4.6,0.5,9.4,0.9,14.2,1.3
		c4.8,0.4,9.8,0.8,14.3,1.2c24.6-1,50.9,0,74-3.5c-3.5,0.5-2.6-3.2,0.2-2.7c8.4,5.2,12.3-2.5,20.4,0.7c12.8-3.7,25.9-0.4,36.9-7
		l0.7,1.7c2,0.4,2.2-0.8,4.1-1.3l0.1,0.5c4.7-0.1,9.6-2.8,12.4-2.5l-0.4-1.9c2.6-0.7,1.8,1.2,4.2-0.4l0.2,1l2.6-2.3
		c0.7,3.3,7.5-1.1,10.1-0.1c3.2-1.2,9.1-3.9,14.5-4.3c1.5,1.5,7.8,0.2,12.1,0.2c7.7-2,18.5-4.9,28.5-6.4l-0.9-2.1l2.5-0.7l0.2,1
		c2.8,2,5.6-2,8.2-1c-2-1.6-1.9,0.1-3.4,0.4c-2.5-0.5-1.2-3,2-2.6l0.1,0.5l1.5-1.5c0.8,1.6,2.8,2,3.7,3.6c8.2-2.2,12.9-6.3,21.8-7.4
		c-0.2,2,6-1.9,5.5,1.7c4.7-2.3-1.8-2.4-0.3-5.2c1.4-0.3,2.6-1.5,3.3-0.4c-0.4,0.9,1.9,1.7,0.8,2.2l3.3-1l-0.5,1.1
		c6.3-3.4,13.2-0.7,18.7-3.9c0.1-1.2-2.6,0.2-2.6-1c5.4-3.7,6.3,0.8,11.6-2.1l-0.6,1.9c1.5-1.5,1.8-3.1,5.4-2.4
		c1.2,1.8-2.1,2.1-3.2,3.3c2.2-0.4,7.4-2,5.1-3.4c2.3-1.2,3.8,0.3,5.4,0.5c-0.1-0.5-2.8-0.7-1.7-1.9c3.9,0.3,9.2-0.9,13.5-1.6
		l0.2,0.5c6-1.8,12.1-3.4,17.9-4.4c9.6-1.7,18.5-5.7,28.2-7.5c2.1-0.4,4.2-0.9,6.2-1.3c2-1.3,4.5-2,7-3l0.6,1.1
		c4.5-1.2,9-2.4,13.7-3.8c8.5-2.4,16.9-6.7,25.6-8.9c1.4-0.4,2.8-0.5,4.3-0.7c0.8-0.7,2-1,1.5-2.3c2.4,0.6,3.1-1.3,4.8-1.8
		c3.7,1.1,7.6-1,10.7,0.7c1.2-1.2,2-4.3,5.2-5.1c1.4,0.9,1.5,1.4,1.6,1.7c0.6-0.2,1.3-0.4,1.9-0.6l0-0.5c0.8-0.1,1.3-0.1,1.7,0
		c3.7-1.1,7.6-1.9,11.5-2.5c-0.3-0.3-0.5-0.6-0.3-1.3c1.9,0,3.1-2.9,5-1.3l-1.5,1.9c3.3-2,1.4-2.4,5.8-2.6l0,0.9
		c2-2.6,6.1-1.4,10.1-1.9l-0.6,0.6c1.4-0.8,1.9-2.5,2.8-2.5c-2.5-0.6-2.1-1.1-2.7-2.7c3.8,2.2,3.6-4,9-3.2c0.2,1-0.7,2.3-2.3,1.6
		c-0.9,3.1-0.4,5.5-3,7.3c1.6-1,3.6-1.7,3.6-0.5v0l-0.2-2.7c1.1-0.3,2-0.3,2.9-0.4c0-1.7-3-2.3-0.8-3.8c2.7-1.3,2.3,2.4,2.5,1.2
		c3.7-1.7,0.9-3.1,5-2.9l-1.4,0.6c3,0.6,6.7-1.6,8.4,1.4c-0.3,0.8-0.1,1.7-1.2,1.6l0-0.5c-2.5,2.8,2.4-1,2.2,1.9
		c-0.6-1.6,3.4-1.9,5.2-1.9l-1.1-1.8c3.9-5.8,1.5,1.5,4.6,2.3c0.7-0.1,1.4-0.2,2.2-0.4c2.2-1.4-1.9-0.2-0.1-1.8
		c2.6,0,3.9,1.5,7.4,0.2l0.7,0.3c1.2-0.2,2.4-0.3,3.6-0.5l0.1-0.3c3.1-0.3,6.8-1.9,9.1-1.4c-0.5-0.3-0.8-0.9-0.7-1.4
		c4.2-1.3,5-3.6,9.5-3.5c0.9,1.9-1.6,1.8-3.4,2.2c3.1,1.2,2.9-0.2,7.3-0.1c0.5,1.7-2.9,0.2-3.1,2l4.6-1.1l0.1,0.4
		c0.2-3,3.6-0.2,6.3-1.3c6.9-0.7,7.3-4.6,10.8-7.3c1.1,0.7,1.6,1.4,1.2,2.1c-1.9-1.1-1.5-0.1-1.9,0.7c1.8-0.4,4.1,1.2,4.5,2.5
		l1.1,0.1c-0.4-0.5-2-0.8-0.6-1.5l5.1-0.2c-0.8-1.4-2.6-1.6-0.1-2.9c2.2-0.6,3.3-0.4,6.2-0.5c-0.3,0.8,1.2,2.1-1,2.2
		c1.5,0.5,3.6,0.3,4.3-1.1c-3.3-1.1,5.1-1.6,2.4-3.7l3.3,1.1c-0.7,0-0.7,1-1.8,0.8c1.1,2.1,2.5-0.8,3.6-1.1c1.1,0.4,4.1,0.4,4.4,1.2
		c1-0.7,3.5-0.3,4,0.8c1.5-0.5,0-1.4,0.4-2.2l5.1-0.1l0.2,1c1.8-0.6,3.5-1.1,5.3-1.4c5.9-1.1,12.3-1.2,18.6-1.4l-1.1-0.4
		c3.3-1.2,3-0.9,4.9-2.6c-0.3,0.8,0.1,1.9,1,2.8c2.1-0.1,4.1-0.3,6.1-0.6l0.1-0.6l3.7-0.4l-0.3,0.6c6.6-0.8,13.5-1.3,20.4-1.2
		c0.3-0.2,0.7-0.4,1.4-0.5l0.1,0.5c2.5,0.1,4.9,0.2,7.4,0.3c6.7-1.8,15.6-1.2,21.5-0.9c8.7,0.4,18,0.5,26.9,1.8
		c0.4,0.1,1,0.1,1.7,0.2l-0.7-0.6c-0.1-1.3,2.3-2,3.7-1.3l0.4,2.2l0.5,0.1l1.7-2.2c2.4-0.2,3,1.6,4.8,2.1c-0.5,0-1.2,0.4-1.7,1
		c0.7,0.2,1.3,0.5,1.7,0.9l0.8,1c2.5-0.1,4.9-0.1,7.4,0c1.6-0.3,2.8-0.6,2-1.6c0.6-0.7,3.2-0.5,3.2,0.7c-0.9,0.4-1.2,0.8-1.1,1.2
		c3.8,0.3,7.6,0.8,11.4,1.5c1,0.2,2,0.5,3,0.8l0.7,0l-0.1,0.2l0.4,0.1l3-1.3l1.1,1.4c0.1-0.6,0.7-1.1,1.8-1c0.1,0.8,1.1,1.2,0.8,2.1
		c3.3,0.3,3.3-1,3.9-1.6c1.9,0.1,2.4,0.7,1.3,2c2.4,0.6,6.9,0.9,8.3,2.4c3.6-0.7-0.6-0.6,1.8-2
		C1728.1,483.3,1736.8,481.8,1742.4,482.2"/>
</g>
</svg>
