<?xml version="1.0" encoding="utf-8"?>
<!-- Generator: Adobe Illustrator 20.1.0, SVG Export Plug-In . SVG Version: 6.00 Build 0)  -->
<svg version="1.1" id="Calque_1" xmlns="http://www.w3.org/2000/svg" xmlns:xlink="http://www.w3.org/1999/xlink" x="0px" y="0px"
	 viewBox="0 0 234.3 156.9" style="enable-background:new 0 0 234.3 156.9;" xml:space="preserve">
<style type="text/css">
	.st0{fill:#FFFFFF;}
	.st1{fill:none;stroke:#C13628;stroke-width:2.0871;stroke-miterlimit:10;}
</style>
<path class="st0" d="M234.3,102.3V54.5c0-15.7-10.4-29.5-25.4-33.8L156.2,5.5c-25.5-7.4-52.6-7.4-78.1,0L25.4,20.7
	C10.4,25.1,0,38.9,0,54.5v47.8c0,15.7,10.4,29.5,25.4,33.8l52.7,15.2c25.5,7.4,52.6,7.4,78.1,0l52.7-15.2
	C223.9,131.8,234.3,118,234.3,102.3z"/>
<path class="st1" d="M117.1,150c-8.6,0-18,0.1-37.8-5.2l-52-15C11.8,125,6.6,110.8,6.6,99V56c0-10.1,5.2-24.5,22.9-29.6l51.7-14.9
	c17.5-4.6,27.4-5.3,35.9-5.3s19.2,0,34,3.8L204.9,26c10.9,3.6,22.7,14.1,22.7,29.4v45c0,11.7-7.7,24.9-22.1,29.7l-53.9,15.6
	C138,149,125.7,150,117.1,150z"/>
</svg>
