<?xml version="1.0" encoding="utf-8"?>
<!-- Generator: Adobe Illustrator 20.1.0, SVG Export Plug-In . SVG Version: 6.00 Build 0)  -->
<svg version="1.1" id="Слой_1" xmlns="http://www.w3.org/2000/svg" xmlns:xlink="http://www.w3.org/1999/xlink" x="0px" y="0px"
	 viewBox="0 0 92.7 48.7" style="enable-background:new 0 0 92.7 48.7;" xml:space="preserve">
<style type="text/css">
	.st0{clip-path:url(#SVGID_2_);fill-rule:evenodd;clip-rule:evenodd;fill:#FFFFFF;}
	.st1{clip-path:url(#SVGID_2_);fill-rule:evenodd;clip-rule:evenodd;fill:#EFC825;}
	.st2{clip-path:url(#SVGID_2_);fill-rule:evenodd;clip-rule:evenodd;fill:#D87D1A;}
	.st3{clip-path:url(#SVGID_2_);fill-rule:evenodd;clip-rule:evenodd;fill:#A5CC32;}
	.st4{clip-path:url(#SVGID_2_);fill-rule:evenodd;clip-rule:evenodd;fill:#C43A17;}
	.st5{clip-path:url(#SVGID_2_);fill-rule:evenodd;clip-rule:evenodd;fill:#438C52;}
	.st6{clip-path:url(#SVGID_2_);fill-rule:evenodd;clip-rule:evenodd;fill:#F8E08B;}
	.st7{clip-path:url(#SVGID_2_);fill-rule:evenodd;clip-rule:evenodd;fill:#EFBA7B;}
	.st8{clip-path:url(#SVGID_2_);fill-rule:evenodd;clip-rule:evenodd;fill:#E6956A;}
	.st9{clip-path:url(#SVGID_2_);fill-rule:evenodd;clip-rule:evenodd;fill:#737373;}
	.st10{clip-path:url(#SVGID_2_);fill-rule:evenodd;clip-rule:evenodd;fill:#8DB185;}
	.st11{clip-path:url(#SVGID_2_);fill-rule:evenodd;clip-rule:evenodd;fill:#DBEE92;}
</style>
<g>
	<defs>
		<rect id="SVGID_1_" y="0" width="92.7" height="48.7"/>
	</defs>
	<clipPath id="SVGID_2_">
		<use xlink:href="#SVGID_1_"  style="overflow:visible;"/>
	</clipPath>
	<path class="st0" d="M82.1,0H10.6C4.8,0,0,4.8,0,10.6v27.4c0,5.9,4.8,10.6,10.6,10.6h71.5c5.9,0,10.6-4.8,10.6-10.6V10.6
		C92.7,4.8,88,0,82.1,0"/>
	<rect x="37.9" y="17.2" class="st1" width="17" height="27.7"/>
	<rect x="54.9" y="17.2" class="st2" width="17" height="27.7"/>
	<rect x="20.8" y="17.2" class="st3" width="17" height="27.7"/>
	<path class="st4" d="M82.1,44.9H71.9V17.2h10.2c3.8,0,6.8,3.1,6.8,6.8v14C89,41.8,85.9,44.9,82.1,44.9"/>
	<path class="st5" d="M20.8,17.2H10.6c-3.8,0-6.8,3.1-6.8,6.8v14c0,3.8,3.1,6.8,6.8,6.8h10.2V17.2z"/>
	<path class="st6" d="M46.4,24.7c-3.3,0-5.9,2.5-5.9,6.3c0,3.9,2.3,6.4,5.9,6.4c2.3,0,3.9-0.9,5-2.6l-1.8-1.3
		c-0.7,1.2-1.7,1.8-3.1,1.8c-2.3,0-3.5-1.6-3.5-4.3c0-2.6,1.3-4.3,3.3-4.3c1.3,0,2.3,0.7,2.8,1.8l2.3-0.8
		C50.6,26,49.2,24.7,46.4,24.7"/>
	<path class="st7" d="M62.2,35.4h-1v-8.6h1.3c3,0,4.4,1.6,4.4,4.3C66.9,33.5,65.4,35.4,62.2,35.4 M62.6,24.9h-3.7v12.4h3.5
		c4.4,0,7.1-2.6,7.1-6.2C69.4,27.2,66.9,24.9,62.6,24.9"/>
	<polygon class="st8" points="84.4,24.9 76.5,24.9 76.5,37.3 84.4,37.3 84.4,35.4 78.9,35.4 78.9,31.8 82.8,31.8 82.8,29.9 
		78.9,29.9 78.9,26.8 84.4,26.8 	"/>
	<polygon class="st9" points="9,7.7 9,11.5 7.5,11.5 7.5,4.8 8.7,4.8 11.7,8.7 11.7,4.8 13.3,4.8 13.3,11.5 12,11.5 	"/>
	<path class="st9" d="M17.4,10.2c0.3,0,0.5-0.1,0.7-0.2c0.2-0.1,0.3-0.3,0.4-0.4c0.1-0.2,0.2-0.4,0.2-0.6c0-0.2,0.1-0.5,0.1-0.7V4.8
		h1.5v3.4c0,0.5-0.1,0.9-0.2,1.3c-0.1,0.4-0.3,0.7-0.5,1c-0.2,0.3-0.5,0.5-0.9,0.7c-0.4,0.2-0.8,0.3-1.3,0.3c-0.5,0-1-0.1-1.4-0.3
		c-0.4-0.2-0.7-0.4-0.9-0.7c-0.2-0.3-0.4-0.6-0.5-1c-0.1-0.4-0.2-0.8-0.2-1.3V4.8H16v3.4C16,8.5,16,8.7,16,9c0,0.2,0.1,0.4,0.2,0.6
		c0.1,0.2,0.3,0.3,0.4,0.4C16.9,10.1,17.1,10.2,17.4,10.2"/>
	<polygon class="st9" points="26.5,6.2 24.5,6.2 24.5,11.5 23,11.5 23,6.2 20.9,6.2 20.9,4.8 26.5,4.8 	"/>
	<path class="st9" d="M27.3,11.5V4.8h3c0.3,0,0.6,0.1,0.9,0.2c0.3,0.1,0.5,0.3,0.7,0.5C32,5.8,32.1,6,32.2,6.3
		c0.1,0.3,0.2,0.5,0.2,0.8c0,0.2,0,0.4-0.1,0.6c0,0.2-0.1,0.4-0.2,0.5c-0.1,0.2-0.2,0.3-0.3,0.5c-0.1,0.1-0.3,0.2-0.4,0.3l1.5,2.5
		h-1.7l-1.3-2.1h-1v2.1H27.3z M28.8,8h1.4c0.2,0,0.3-0.1,0.5-0.3c0.1-0.2,0.2-0.4,0.2-0.7c0-0.3-0.1-0.5-0.2-0.7
		c-0.1-0.2-0.3-0.2-0.5-0.2h-1.4V8z"/>
	<rect x="33.6" y="4.8" class="st9" width="1.5" height="6.6"/>
	<rect x="36.3" y="8.2" class="st9" width="2.9" height="1.3"/>
	<path class="st9" d="M44.2,6.8L44,6.6c-0.1-0.1-0.3-0.1-0.4-0.2c-0.2-0.1-0.3-0.1-0.5-0.2c-0.2-0.1-0.4-0.1-0.6-0.1
		c-0.3,0-0.5,0-0.6,0.1c-0.1,0.1-0.2,0.2-0.2,0.4L41.7,7c0.1,0.1,0.1,0.1,0.3,0.2c0.1,0.1,0.3,0.1,0.4,0.2L43,7.5
		c0.3,0.1,0.6,0.2,0.9,0.3c0.3,0.1,0.5,0.2,0.6,0.4c0.2,0.2,0.3,0.3,0.4,0.6c0.1,0.2,0.1,0.5,0.1,0.8c0,0.4-0.1,0.7-0.2,0.9
		c-0.1,0.3-0.3,0.5-0.6,0.6c-0.2,0.2-0.5,0.3-0.8,0.3c-0.3,0.1-0.6,0.1-0.9,0.1c-0.2,0-0.5,0-0.7-0.1c-0.3,0-0.5-0.1-0.7-0.2
		c-0.2-0.1-0.5-0.2-0.7-0.3c-0.2-0.1-0.4-0.2-0.6-0.3l0.7-1.3l0.2,0.2c0.1,0.1,0.3,0.2,0.5,0.3c0.2,0.1,0.4,0.2,0.7,0.2
		c0.3,0.1,0.5,0.1,0.8,0.1c0.5,0,0.8-0.2,0.8-0.5c0-0.1,0-0.2-0.1-0.3c-0.1-0.1-0.2-0.1-0.3-0.2C42.9,9.1,42.7,9,42.5,9l-0.6-0.2
		c-0.3-0.1-0.6-0.2-0.8-0.3c-0.2-0.1-0.4-0.2-0.6-0.4s-0.3-0.3-0.3-0.5c-0.1-0.2-0.1-0.4-0.1-0.7c0-0.3,0.1-0.7,0.2-0.9
		c0.1-0.3,0.3-0.5,0.5-0.7C41,5.2,41.3,5,41.6,4.9c0.3-0.1,0.6-0.1,0.9-0.1c0.2,0,0.5,0,0.7,0.1c0.2,0,0.4,0.1,0.6,0.2
		c0.2,0.1,0.4,0.2,0.6,0.2c0.2,0.1,0.3,0.2,0.5,0.3L44.2,6.8z"/>
	<path class="st9" d="M45.6,8.1c0-0.4,0.1-0.8,0.2-1.2c0.1-0.4,0.3-0.8,0.6-1.1c0.3-0.3,0.6-0.6,1-0.8c0.4-0.2,0.8-0.3,1.3-0.3
		c0.6,0,1.1,0.1,1.5,0.4c0.4,0.3,0.8,0.6,1,1l-1.2,0.8c-0.1-0.2-0.2-0.3-0.3-0.4c-0.1-0.1-0.2-0.2-0.3-0.3c-0.1-0.1-0.3-0.1-0.4-0.2
		c-0.1,0-0.3,0-0.4,0c-0.3,0-0.5,0.1-0.7,0.2c-0.2,0.1-0.4,0.3-0.5,0.5c-0.1,0.2-0.2,0.4-0.3,0.6c-0.1,0.2-0.1,0.5-0.1,0.7
		c0,0.3,0,0.5,0.1,0.8c0.1,0.2,0.2,0.5,0.3,0.6c0.1,0.2,0.3,0.3,0.5,0.4c0.2,0.1,0.4,0.2,0.7,0.2c0.1,0,0.3,0,0.4-0.1
		c0.1,0,0.3-0.1,0.4-0.2c0.1-0.1,0.2-0.2,0.3-0.3c0.1-0.1,0.2-0.3,0.2-0.4l1.3,0.7c-0.1,0.2-0.2,0.5-0.4,0.7
		c-0.2,0.2-0.4,0.4-0.6,0.5c-0.2,0.1-0.5,0.2-0.8,0.3c-0.3,0.1-0.5,0.1-0.8,0.1c-0.5,0-0.9-0.1-1.3-0.3c-0.4-0.2-0.7-0.4-1-0.8
		c-0.3-0.3-0.5-0.7-0.6-1.1C45.7,8.9,45.6,8.5,45.6,8.1"/>
	<path class="st9" d="M54.9,11.5c-0.5,0-0.9-0.1-1.3-0.3c-0.4-0.2-0.7-0.4-1-0.8c-0.3-0.3-0.5-0.7-0.6-1.1c-0.1-0.4-0.2-0.8-0.2-1.3
		s0.1-0.9,0.2-1.3c0.2-0.4,0.4-0.8,0.7-1.1c0.3-0.3,0.6-0.6,1-0.7c0.4-0.2,0.8-0.3,1.3-0.3c0.5,0,0.9,0.1,1.3,0.3
		c0.4,0.2,0.7,0.4,1,0.8c0.3,0.3,0.5,0.7,0.6,1.1C58,7.3,58,7.8,58,8.2C58,8.6,58,9,57.8,9.4c-0.2,0.4-0.4,0.8-0.7,1.1
		c-0.3,0.3-0.6,0.6-1,0.7C55.8,11.4,55.3,11.5,54.9,11.5 M53.3,8.2c0,0.3,0,0.5,0.1,0.7c0.1,0.2,0.2,0.5,0.3,0.6
		c0.1,0.2,0.3,0.3,0.5,0.5c0.2,0.1,0.4,0.2,0.7,0.2c0.3,0,0.5-0.1,0.7-0.2c0.2-0.1,0.4-0.3,0.5-0.5c0.1-0.2,0.2-0.4,0.3-0.6
		c0.1-0.2,0.1-0.5,0.1-0.7s0-0.5-0.1-0.7c-0.1-0.2-0.2-0.5-0.3-0.6c-0.1-0.2-0.3-0.3-0.5-0.4c-0.2-0.1-0.4-0.2-0.7-0.2
		c-0.3,0-0.5,0.1-0.7,0.2c-0.2,0.1-0.4,0.3-0.5,0.5c-0.1,0.2-0.2,0.4-0.3,0.6C53.3,7.7,53.3,7.9,53.3,8.2"/>
	<path class="st9" d="M58.9,11.5V4.8h3c0.3,0,0.6,0.1,0.9,0.2c0.3,0.1,0.5,0.3,0.7,0.5c0.2,0.2,0.3,0.5,0.4,0.7
		c0.1,0.3,0.2,0.5,0.2,0.8c0,0.2,0,0.4-0.1,0.6c0,0.2-0.1,0.4-0.2,0.5c-0.1,0.2-0.2,0.3-0.3,0.5C63.3,8.8,63.2,8.9,63,9l1.5,2.5
		h-1.7l-1.3-2.1h-1v2.1H58.9z M60.5,8h1.4c0.2,0,0.3-0.1,0.5-0.3c0.1-0.2,0.2-0.4,0.2-0.7c0-0.3-0.1-0.5-0.2-0.7
		c-0.2-0.2-0.3-0.2-0.5-0.2h-1.3V8z"/>
	<polygon class="st9" points="69.9,10.1 69.9,11.5 65.3,11.5 65.3,4.8 69.8,4.8 69.8,6.2 66.8,6.2 66.8,7.5 69.4,7.5 69.4,8.7 
		66.8,8.7 66.8,10.1 	"/>
	<path class="st10" d="M10.4,33l1.9-4.9l1.8,4.9H10.4z M13.1,24.9h-1.7L6.4,37.3h2.4l0.9-2.4h5.1l0.9,2.4h2.6L13.1,24.9z"/>
	<path class="st11" d="M27.3,35.4v-3.5h1.2c2.2,0,2.9,0.7,2.9,1.7c0,1.3-0.9,1.8-2.7,1.8H27.3z M27.3,30.2v-3.4H28
		c1.9,0,2.6,0.6,2.6,1.7c0,1-0.7,1.7-2.3,1.7L27.3,30.2z M28.3,24.9h-3.4v12.4h3.8c3.6,0,5.1-1.5,5.1-3.7c0-1.2-0.7-2.2-2.1-2.7
		c0.8-0.6,1.4-1.5,1.4-2.6C33.1,26.4,31.8,24.9,28.3,24.9"/>
</g>
</svg>
