<?xml version="1.0" encoding="utf-8"?>
<!-- Generator: Adobe Illustrator 20.1.0, SVG Export Plug-In . SVG Version: 6.00 Build 0)  -->
<svg version="1.1" id="Слой_1" xmlns="http://www.w3.org/2000/svg" xmlns:xlink="http://www.w3.org/1999/xlink" x="0px" y="0px"
	 viewBox="0 0 123.2 26.9" style="enable-background:new 0 0 123.2 26.9;" xml:space="preserve">
<style type="text/css">
	.st0{fill:#ED1C24;}
</style>
<path class="st0" d="M0.3,17.1c0.1,0,0,0.3,0.6,0.9c0.6,0.6,0.8,1.2,0.8,1.4c0,0.2,0.2,1,0.4,1.5c0.2,0.6,0.8,1.3,0.8,1.7
	c0,0.5-0.1,2.2-0.1,2.2s-0.1,0.7,0,1.2c0.1,0.3,0.3,0.7,0.2,0.9h1h116.1l0.5,0c-0.1-0.3,0.1-0.4,0.1-0.6c0-0.5,0.1-2.4,0.1-2.4
	s0.1-0.8,0-1.3c-0.1-0.5-0.5-1.5,0.1-1.5c0.6,0,0.3-1.1,0.2-1.1c-0.1,0-0.4,0.3-0.3-0.4c0-0.8-0.2-1.9,0-2.3
	c0.2-0.3,0.3-1.8,0.3-1.8l-0.1-1.2c0,0-0.1-1.9-0.1-2.1c-0.1-0.1,0-2.2,0-2.2s0.3-1.4,0.4-1.3c0.1,0.1,0.4-1.4,0.4-1.6
	c0-0.2-0.5-0.7-0.5-0.7s0.1-0.8,0.3-0.8s1.1-1.2,1.1-1.2c-0.1-0.1-0.6-0.9-0.7-1c-0.1-0.1-0.8-0.6-0.5-0.8c0.3-0.2,0.8-0.9,0.8-0.9
	l0.9-0.6V0.9c-0.1-0.1-0.5-0.2-0.5-0.3c0-0.1-0.2-0.3-0.4-0.6H4H1.4c0,0.4-0.1,0.7-0.1,0.7l-0.2,1l0.4,0.7c0,0,0.4,0.7,0.2,0.9
	c-0.1,0.2,0,0.7-0.1,0.8c0,0.1-0.3,1.1,0,1.2c0.3,0.1,1.1,0,1.2,0c0.1,0-0.6,1.4-0.8,1.8C1.9,7.6,1.4,7.8,1.4,7.9
	c0,0.1-0.3,1.7-0.3,1.9c0,0.2,0.3,1,0.4,1.1c0.1,0.1,0.6,0.4,0.5,1.1c-0.1,0.7-0.4,1.7-0.4,1.7s-1,1.7-1.1,1.6
	c-0.1-0.1-0.3,0.4-0.4,0.8C-0.1,16.3,0.2,17.1,0.3,17.1z"/>
</svg>
